HIERARCHY
ROOT root
{
	OFFSET	0	13.1	24.9
	CHANNELS 6  Xposition Yposition Zposition Xrotation Yrotation Zrotation
	JOINT spine_1
	{
		OFFSET	0	9.99999	0
		CHANNELS 3  Xrotation Yrotation Zrotation
		JOINT spine_2
		{
			OFFSET	0	112	-10
			CHANNELS 3  Xrotation Yrotation Zrotation
			JOINT spine_3
			{
				OFFSET	0	206.5	19.3
				CHANNELS 3  Xrotation Yrotation Zrotation
				JOINT spine_4
				{
					OFFSET	0	110.4	14.6
					CHANNELS 3  Xrotation Yrotation Zrotation
					JOINT neck_1
					{
						OFFSET	0	71.8	-50.3
						CHANNELS 3  Xrotation Yrotation Zrotation
						JOINT neck_2
						{
							OFFSET	0	86.2	-25.8
							CHANNELS 3  Xrotation Yrotation Zrotation
							JOINT head_ee
							{
								OFFSET	0	179.8	-8.7
								CHANNELS 3  Xrotation Yrotation Zrotation
								End Site
								{
									OFFSET	1	0	0
								}
							}
						}
					}
					JOINT left_clavicle
					{
						OFFSET	-43.2	22.4	-70.8
						CHANNELS 3  Xrotation Yrotation Zrotation
						JOINT left_shoulder
						{
							OFFSET	-93.9	-5.79999	48.7
							CHANNELS 3  Xrotation Yrotation Zrotation
							JOINT left_elbow
							{
								OFFSET	-291.4	-30.8	15.2
								CHANNELS 3  Xrotation Yrotation Zrotation
								JOINT left_lowarm_twist
								{
									OFFSET	-110.7	-3.89999	13.6
									CHANNELS 3  Xrotation Yrotation Zrotation
									JOINT left_hand
									{
										OFFSET	-110.7	-3.89999	13.6
										CHANNELS 3  Xrotation Yrotation Zrotation
										JOINT left_ee
										{
											OFFSET	-80.8	-5.10001	12.1
											CHANNELS 3  Xrotation Yrotation Zrotation
											End Site
											{
												OFFSET	1	0	0
											}
										}
									}
								}
							}
						}
					}
					JOINT right_clavicle
					{
						OFFSET	43.2	22.4	-70.8
						CHANNELS 3  Xrotation Yrotation Zrotation
						JOINT right_shoulder
						{
							OFFSET	93.9	-5.79999	48.7
							CHANNELS 3  Xrotation Yrotation Zrotation
							JOINT right_elbow
							{
								OFFSET	291.4	-30.8	15.2
								CHANNELS 3  Xrotation Yrotation Zrotation
								JOINT right_lowarm_twist
								{
									OFFSET	110.7	-3.89999	13.6
									CHANNELS 3  Xrotation Yrotation Zrotation
									JOINT right_hand
									{
										OFFSET	110.7	-3.89999	13.6
										CHANNELS 3  Xrotation Yrotation Zrotation
										JOINT right_ee
										{
											OFFSET	80.8	-5.10001	12.1
											CHANNELS 3  Xrotation Yrotation Zrotation
											End Site
											{
												OFFSET	1	0	0
											}
										}
									}
								}
							}
						}
					}
				}
			}
		}
	}
	JOINT left_hip
	{
		OFFSET	-82.8	-127.5	0.300001
		CHANNELS 3  Xrotation Yrotation Zrotation
		JOINT left_knee
		{
			OFFSET	-28.2	-396.7	2.2
			CHANNELS 3  Xrotation Yrotation Zrotation
			JOINT left_ankle
			{
				OFFSET	-11.7	-411.3	35.4
				CHANNELS 3  Xrotation Yrotation Zrotation
				JOINT left_toes
				{
					OFFSET	0	-60	-88.6
					CHANNELS 3  Xrotation Yrotation Zrotation
					JOINT left_foot_ee
					{
						OFFSET	-22.5	-16.5	-42.2
						CHANNELS 3  Xrotation Yrotation Zrotation
						End Site
						{
							OFFSET	1	0	0
						}
					}
				}
			}
		}
	}
	JOINT right_hip
	{
		OFFSET	82.8	-127.5	0.300001
		CHANNELS 3  Xrotation Yrotation Zrotation
		JOINT right_knee
		{
			OFFSET	28.2	-396.7	2.2
			CHANNELS 3  Xrotation Yrotation Zrotation
			JOINT right_ankle
			{
				OFFSET	11.7	-411.3	35.4
				CHANNELS 3  Xrotation Yrotation Zrotation
				JOINT right_toes
				{
					OFFSET	0	-60	-88.6
					CHANNELS 3  Xrotation Yrotation Zrotation
					JOINT right_foot_ee
					{
						OFFSET	22.5	-16.5	-42.2
						CHANNELS 3  Xrotation Yrotation Zrotation
						End Site
						{
							OFFSET	1	0	0
						}
					}
				}
			}
		}
	}
}
MOTION
Frames: 9
Frame Time: 0.02
3433.13376617 730.766 -1501.98244859 32.4979081235 76.8473358979 -29.464850849 -2.65466 0.0687492 -0.795183 -2.65432 0.119208 -0.789198 -2.65567 0.316722 -0.732622 -2.65637 0.197047 -0.773445 -15.4987 7.03581 4.47592 -15.548 10.8568 6.60769 -0.0 0.0 -0.0 3.63666 23.2664 7.71239 -18.8841 -20.9566 63.2533 1.03891 -27.2318 0.25165 -64.1857 -5.80741 5.2123 -1.58659 11.0323 -5.54977 -0.0 0.0 -0.0 9.42365 15.6824 -18.3839 22.872 -15.7918 -65.8274 0.509092 14.1544 -0.0632056 84.893 4.41372 8.86119 1.72665 -20.8882 -18.9475 0.0 0.0 0.0 38.417 46.8394 -40.5803 -28.0066 0.115239 4.25382 35.7694 4.18467 -4.47367 11.0775 -0.0 -0.0 -0.0 0.0 -0.0 -7.95371 8.28674 -7.40312 -12.9062 -0.3127 -1.95178 40.264 -5.17591 4.88062 -14.334 0.0 0.0 0.0 0.0 0.0 
3434.03671389 730.766 -1506.30576297 28.8728545401 75.3340837218 -25.730692464 -2.65466 0.0687492 -0.795183 -2.65432 0.119208 -0.789198 -2.65567 0.316722 -0.732622 -2.65637 0.197047 -0.773445 -15.4987 7.03581 4.47592 -15.548 10.8568 6.60769 -0.0 0.0 -0.0 3.63666 23.2664 7.71239 -18.8841 -20.9566 63.2533 1.03891 -27.2318 0.25165 -64.1857 -5.80741 5.2123 -1.58659 11.0323 -5.54977 -0.0 0.0 -0.0 9.42365 15.6824 -18.3839 22.872 -15.7918 -65.8274 0.509092 14.1544 -0.0632056 84.893 4.41372 8.86119 1.72665 -20.8882 -18.9475 0.0 0.0 0.0 38.417 46.8394 -40.5803 -28.0066 0.115239 4.25382 35.7694 4.18467 -4.47367 11.0775 -0.0 -0.0 -0.0 0.0 -0.0 -7.95371 8.28674 -7.40312 -12.9062 -0.3127 -1.95178 40.264 -5.17591 4.88062 -14.334 0.0 0.0 0.0 0.0 0.0 
3433.99648419 730.766 -1506.12636972 29.0085244047 75.398148525 -25.8709110021 -2.65466 0.0687492 -0.795183 -2.65432 0.119208 -0.789198 -2.65567 0.316722 -0.732622 -2.65637 0.197047 -0.773445 -15.4987 7.03581 4.47592 -15.548 10.8568 6.60769 -0.0 0.0 -0.0 3.63666 23.2664 7.71239 -18.8841 -20.9566 63.2533 1.03891 -27.2318 0.25165 -64.1857 -5.80741 5.2123 -1.58659 11.0323 -5.54977 -0.0 0.0 -0.0 9.42365 15.6824 -18.3839 22.872 -15.7918 -65.8274 0.509092 14.1544 -0.0632056 84.893 4.41372 8.86119 1.72665 -20.8882 -18.9475 0.0 0.0 0.0 38.417 46.8394 -40.5803 -28.0066 0.115239 4.25382 35.7694 4.18467 -4.47367 11.0775 -0.0 -0.0 -0.0 0.0 -0.0 -7.95371 8.28674 -7.40312 -12.9062 -0.3127 -1.95178 40.264 -5.17591 4.88062 -14.334 0.0 0.0 0.0 0.0 0.0 
3422.82885387 727.148 -1496.49354279 35.7937651006 77.7250192045 -32.9899856346 -2.7344 0.187377 -0.700999 -2.73416 0.231603 -0.687656 -2.73682 0.400332 -0.605184 -2.73721 0.299732 -0.660812 -13.5214 7.52159 3.84339 -13.5795 11.9584 5.96715 -0.0 0.0 -0.0 3.64787 24.0567 7.72958 -20.5323 -20.219 63.1932 0.933814 -24.8241 0.205523 -63.7904 -5.75756 5.20346 -1.42606 13.6566 -3.31895 -0.0 0.0 -0.0 9.8263 17.5657 -19.1752 25.3894 -15.4584 -65.5647 0.500604 13.9277 -0.0611463 85.2481 4.45625 8.87751 1.42028 -22.1309 -17.4079 0.0 0.0 0.0 39.7716 45.5406 -39.82 -28.1904 0.109112 4.28135 33.963 6.48423 -4.29704 12.5898 -0.0 -0.0 -0.0 0.0 -0.0 -9.20457 8.4867 -6.84853 -12.1654 -0.306714 -1.83827 41.5345 -5.88176 4.98893 -15.2148 0.0 0.0 0.0 0.0 0.0 
3410.31298314 726.287 -1486.88136588 51.94102937 80.1039305488 -49.4165027848 -2.8027 0.1938 -0.603581 -2.80253 0.231814 -0.590027 -2.80485 0.376082 -0.510327 -2.8051 0.290767 -0.563316 -13.9355 7.16554 2.26747 -14.0337 12.284 4.41055 -0.0 0.0 -0.0 4.08658 24.4326 8.32648 -23.045 -19.3428 62.5658 0.823886 -22.2016 0.161655 -64.1624 -5.80448 5.21179 -1.02794 16.0396 0.218729 -0.0 0.0 -0.0 10.2702 19.1583 -20.0676 27.7129 -14.6453 -65.6238 0.50636 14.0815 -0.0625391 85.2135 4.45211 8.87593 0.892056 -24.9409 -15.0854 0.0 0.0 0.0 39.0141 43.3578 -37.4781 -27.8353 0.120873 4.22812 28.3446 11.1727 -3.72184 14.5236 -0.0 -0.0 -0.0 0.0 -0.0 -11.4091 8.93012 -6.56282 -10.6936 -0.290471 -1.61303 41.1065 -5.37276 4.95243 -13.4332 0.0 0.0 0.0 0.0 0.0 
3399.08273206 725.254 -1474.47993552 68.389410724 81.3333714193 -65.836413386 -2.87742 0.192118 -0.61009 -2.87724 0.23055 -0.59663 -2.87957 0.377237 -0.516541 -2.87983 0.290926 -0.569634 -14.0645 6.91253 1.11248 -14.1807 12.513 3.25237 -0.0 0.0 -0.0 4.181 24.8594 8.44824 -25.0156 -18.8038 62.6442 0.746658 -20.298 0.133661 -64.4244 -5.83756 5.21748 -0.749183 17.6937 2.63092 -0.0 0.0 -0.0 10.5493 20.3954 -20.6078 30.0644 -13.8179 -65.5762 0.52963 14.7011 -0.0683228 85.2277 4.45381 8.87658 0.522455 -26.8922 -13.5627 0.0 0.0 0.0 38.5398 41.7912 -35.8615 -26.8342 0.152247 4.07769 24.7948 14.3846 -3.33692 15.9588 -0.0 -0.0 -0.0 0.0 -0.0 -12.9616 8.8954 -6.37258 -9.75959 -0.277164 -1.47034 40.9987 -4.89793 4.94313 -12.1662 0.0 0.0 0.0 0.0 0.0 
3399.11193704 725.254 -1471.52015241 74.519138533 81.6414602665 -72.0342676197 -2.87742 0.192118 -0.61009 -2.87724 0.23055 -0.59663 -2.87957 0.377237 -0.516541 -2.87983 0.290926 -0.569634 -14.0645 6.91253 1.11248 -14.1807 12.513 3.25237 -0.0 0.0 -0.0 4.181 24.8594 8.44824 -25.0156 -18.8038 62.6442 0.746658 -20.298 0.133661 -64.4244 -5.83756 5.21748 -0.749183 17.6937 2.63092 -0.0 0.0 -0.0 10.5493 20.3954 -20.6078 30.0644 -13.8179 -65.5762 0.52963 14.7011 -0.0683228 85.2277 4.45381 8.87658 0.522455 -26.8922 -13.5627 0.0 0.0 0.0 38.5398 41.7912 -35.8615 -26.8342 0.152247 4.07769 24.7948 14.3846 -3.33692 15.9588 -0.0 -0.0 -0.0 0.0 -0.0 -12.9616 8.8954 -6.37258 -9.75959 -0.277164 -1.47034 40.9987 -4.89793 4.94313 -12.1662 0.0 0.0 0.0 0.0 0.0 
3390.85407295 726.017 -1462.44425924 85.6348325438 81.781577499 -83.0149144922 -2.84201 0.223471 -0.638814 -2.84182 0.263667 -0.6233 -2.84463 0.415809 -0.533974 -2.84488 0.326261 -0.59294 -14.483 6.93884 0.6496 -14.6164 12.8635 2.87206 -0.0 0.0 -0.0 4.18046 25.085 8.44367 -26.4581 -18.3064 62.8129 0.691983 -18.9211 0.11531 -64.5889 -5.85833 5.22097 -0.519007 18.8968 4.52033 -0.0 0.0 -0.0 10.9288 21.3326 -21.3926 31.8574 -13.109 -65.6824 0.561019 15.5314 -0.0765086 85.2543 4.457 8.87779 0.282542 -28.5211 -12.7436 0.0 0.0 0.0 38.3356 40.5718 -34.4769 -25.7041 0.184495 3.90726 22.009 17.0558 -3.02344 16.9184 -0.0 -0.0 -0.0 0.0 -0.0 -14.3441 9.01698 -6.19242 -8.4877 -0.255304 -1.2764 40.2605 -4.59342 4.88036 -11.427 0.0 0.0 0.0 0.0 0.0 
3382.51982338 726.526 -1454.07842569 91.5161186019 81.8994682712 -88.7907353739 -2.84152 0.313066 -0.500335 -2.84145 0.344269 -0.4794 -2.8444 0.456475 -0.374134 -2.84438 0.39166 -0.44153 -14.7972 7.69805 2.6376 -14.9231 13.1453 5.03406 -0.0 0.0 -0.0 4.61887 24.5465 9.04985 -27.9574 -17.7056 63.3898 0.514924 -14.31 0.0646394 -63.2756 -5.6927 5.19142 0.470597 19.7999 10.8409 -0.0 0.0 -0.0 10.8393 20.5074 -21.2538 31.851 -11.3292 -66.8363 0.713532 19.4666 -0.122395 85.1739 4.44736 8.87412 1.04008 -29.4652 -17.2757 0.0 0.0 0.0 39.7104 38.8608 -33.9814 -21.7029 0.271518 3.29954 15.4039 21.587 -2.21181 15.1063 -0.0 -0.0 -0.0 0.0 -0.0 -15.3104 8.66657 -6.0891 -7.2704 -0.230355 -1.09127 38.7256 -3.4454 4.74778 -10.4585 0.0 0.0 0.0 0.0 0.0 
